<svg xmlns="http://www.w3.org/2000/svg" viewBox="0 0 355.6 355.6" fill="#fff"><path d="M109.4 34c-6 .4-10.4 4.8-10.4 10.4v28.8c0 5.6 4.4 10.4 10.4 10.4 5.6 0 10.4-4.4 10.4-10.4V44.4c0-5.6-4.4-10.4-10.4-10.4zM281 0c-5.6 0-10.4 4.4-10.4 10.4V100c0 5.6 4.4 10.4 10.4 10.4s10.4-4.4 10.4-10.4V10.4C291 4.8 286.6 0 281 0zM143 0c-5.6 0-10.4 4.4-10.4 10.4v60.8c0 5.6 4.4 10.4 10.4 10.4 5.6 0 10.4-4.4 10.4-10.4V10.4C153.4 4.8 148.6 0 143 0zM74.2 0c-6 0-10.4 4.8-10.4 10.4V100c0 5.6 4.4 10.4 10.4 10.4S84.6 106 84.6 100V10.4C84.6 4.8 80.2 0 74.2 0zM280.2 124.4C252.6 98.8 217 82.8 177.4 82.8c-40.4 0-76.8 16.4-103.2 42.8C47.8 152 31.8 188 31.4 228v.4c0 5.6 4.8 10.4 10.4 10.4 5.6 0 10.4-4.8 10.4-10.4 0-6.4 2.8-12.4 6.8-16.8 4.4-4.4 10-6.8 16.8-6.8 6.4 0 12.4 2.8 16.8 6.8 4.4 4.4 6.8 10 6.8 16.8 0 5.6 4.8 10.4 10.4 10.4s10.4-4.8 10.4-10.4c0-6.4 2.8-12.4 6.8-16.8 4.4-4.4 10-6.8 16.8-6.8 6.4 0 12.4 2.8 16.8 6.8 4.4 4.4 6.8 10 6.8 16.8V326c0 8 3.2 15.6 8.8 20.8 5.2 5.2 12.8 8.8 20.8 8.8s15.6-3.2 20.8-8.8c5.2-5.2 8.8-12.8 8.8-20.8 0-5.6-4.8-10.4-10.4-10.4-5.6 0-10.4 4.8-10.4 10.4 0 2.4-.8 4.8-2.4 6.4-1.6 1.6-3.6 2.4-6 2.4s-4.8-.8-6-2.4c-1.6-1.6-2.4-3.6-2.4-6v-97.6c0-6.4 2.8-12.4 6.8-16.8 4.4-4.4 10-6.8 16.8-6.8 6.4 0 12.4 2.8 16.8 6.8 4.4 4.4 6.8 10 6.8 16.8 0 5.6 4.8 10.4 10.4 10.4 5.6 0 10.4-4.8 10.4-10.4 0-6.4 2.8-12.4 6.8-16.8 4.4-4.4 10-6.8 16.8-6.8 6 0 11.6 2.4 15.6 6 4.4 3.6 7.2 8.8 7.6 14.8.8 5.2 5.2 9.2 10.4 9.2 5.6 0 10-4.8 10-10.4-1.2-39.2-18-74.8-44-100.4zm-.8 60c-12 0-23.2 4.8-31.2 12.8l-2.8 2.8c-.8-1.2-1.6-2-2.8-2.8-8-8-19.2-12.8-31.2-12.8s-23.2 4.8-31.2 12.8l-2.8 2.8c-.8-1.2-1.6-2-2.8-2.8-8-8-19.2-12.8-31.2-12.8s-23.2 4.8-31.2 12.8l-2.8 2.8c-.8-1.2-1.6-2-2.8-2.8-8-8-19.2-12.8-31.2-12.8-6 0-11.6 1.2-16.8 3.2 6.4-18 16.4-34.4 30-47.6 22.8-22.8 54-36.8 88.4-36.8 34 0 64.8 13.6 87.2 35.2 14 13.6 24.8 30.4 31.2 48.8-4.8-1.6-10.4-2.8-16-2.8zM245.4 34.4c-5.6 0-10.4 4.8-10.4 10.4v28.8c0 5.6 4.8 10.4 10.4 10.4 5.6 0 10.4-4.8 10.4-10.4V44.8c0-6-4.4-10.4-10.4-10.4zM176.6 26c-5.6 0-10.4 4.8-10.4 10.4v28.8c0 5.6 4.8 10.4 10.4 10.4S187 70.8 187 65.2V36.4c0-5.6-4.8-10.4-10.4-10.4zM212.6 0h-.4c-5.6 0-10.4 4.4-10.4 10.4v60.8c0 5.6 4.4 10.4 10.4 10.4 5.6 0 10.4-4.4 10.4-10.4V10c-.4-5.2-4.8-9.6-10-10z"/></svg>