<svg xmlns="http://www.w3.org/2000/svg" viewBox="0 0 364.823 364.823" fill="#fff"><path d="M147.012 313.2c-5.6 0-10.4 4.4-10.4 10.4v27.2c0 5.6 4.4 10.4 10.4 10.4 5.6 0 10.4-4.4 10.4-10.4v-27.2c0-5.6-4.4-10.4-10.4-10.4zM65.812 238c-5.6 0-10.4 4.4-10.4 10.4v102.4c0 5.6 4.4 10.4 10.4 10.4s10.4-4.8 10.4-10.4V248.4c0-5.6-4.4-10.4-10.4-10.4zM198.612 354.4v-14.8c0-5.6-4.8-10.4-10.4-10-5.6 0-10.4 4.8-10 10.4v14.8c0 5.6 4.8 10.4 10.4 10 5.6 0 10.4-4.8 10-10.4zM103.012 272c-5.6 0-10.4 4.4-10.4 10.4v30c0 6 4.8 10.4 10.4 10.4 5.6 0 10.4-4.4 10.4-10.4v-30c0-5.6-4.4-10.4-10.4-10.4zM103.412 329.6c-5.6 0-10.4 4.4-10.4 10v14.8c-.4 6 4 10.4 10 10.4 5.6 0 10.4-4.4 10.4-10V340c0-5.6-4.4-10.4-10-10.4zM225.012 238c-5.6 0-10.4 4.4-10.4 10.4v102.4c.4 5.6 4.8 10.4 10.4 10.4 5.6 0 10.4-4.4 10.4-10.4V248.4c0-5.6-4.4-10.4-10.4-10.4z"/><path d="M338.612 86.8c-15.6-15.6-36.8-24.8-60.4-24.8-2.4 0-5.2 0-7.6.4-8-17.6-20.8-32.4-36.4-43.2-17.6-12.4-38.8-19.2-61.6-19.2-26.4 0-51.2 9.6-70 26-16.8 14.4-29.6 34.4-34.8 57.2-17.2 2-32.8 9.6-44.4 21.6-13.6 13.6-22 32.4-22 52.8 0 20.8 8.4 39.2 22 52.8 13.6 13.6 32.4 22 52.8 22h73.2l-23.6 60.8c-2 5.2.4 11.2 6 13.2 4.4 1.6 8.8.4 11.6-3.2l62.4-71.2h72.4c23.6 0 44.8-9.6 60.4-24.8 15.6-15.6 24.8-36.8 24.8-60.4 0-23.2-9.6-44.4-24.8-60zm-146.4 112.4h15.6l-13.6 15.2-1.2 1.2-26.4 30.4 7.6-19.6c.4-.4.4-1.2.8-1.6l.8-1.6c.8-1.2 1.2-2.8 1.2-4.4 0-5.6-4.8-10.4-10.4-10.4h-14.8l32.8-68h24.8l-25.2 42.8c-1.2 1.6-1.6 3.6-1.6 5.6-.8 5.6 3.6 10.4 9.6 10.4zm131.6-6.4c-11.6 11.6-28 18.8-45.6 18.8h-54l14-16c3.6-4.4 3.2-10.8-.8-14.4-2-1.6-4.4-2.4-6.8-2.4h-20.4l25.6-43.2c2.8-4.8 1.2-11.2-3.6-14-1.6-.8-3.6-1.6-5.2-1.6h-49.2c-4.4 0-8 2.8-9.6 6.4l-41.6 85.2h-50c-14.8 0-28.4-6-38.4-16s-16-23.2-16-38.4c0-14.8 6-28.4 16-38.4s23.2-16 38.4-16c1.6 0 3.6-.4 4.8-1.2 2.4-1.6 4-4 4.4-6.8 3.2-21.2 14-39.6 29.2-52.8 15.2-13.2 35.2-21.2 56.8-21.2 18.4 0 35.6 5.6 49.6 15.6 11.2 8 20.8 18.4 27.2 30.8-2.4.8-4.4 1.6-6.4 2.8-9.6 4.4-19.6 11.6-27.6 20.4-3.6 4.4-3.2 10.8.8 14.4 4.4 3.6 10.8 3.2 14.4-.8 6-6.8 13.6-12.4 22-16 8.4-3.6 17.2-5.6 26.4-5.6 18 0 34 7.2 45.6 18.8 11.6 11.6 18.8 28 18.8 45.6s-6.8 34-18.8 46z"/><path d="M188.212 272c-5.6 0-10.4 4.8-10.4 10.4v30c.4 6 4.8 10.4 10.4 10.4 5.6 0 10.4-4.8 10.4-10.4v-30c0-5.6-4.8-10.4-10.4-10.4zM272.612 354.4v-14.8c0-5.6-4.8-10.4-10.4-10-5.6 0-10.4 4.8-10 10.4v14.8c0 5.6 4.8 10.4 10.4 10 5.6 0 10.4-4.8 10-10.4zM262.212 272c-5.6 0-10.4 4.8-10.4 10.4v30c.4 6 4.8 10.4 10.4 10.4 5.6 0 10.4-4.8 10.4-10.4v-30c0-5.6-4.8-10.4-10.4-10.4zM299.012 238c-5.6 0-10.4 4.4-10.4 10.4v102.4c.4 5.6 4.8 10.4 10.4 10.4 5.6 0 10.4-4.4 10.4-10.4V248.4c0-5.6-4.4-10.4-10.4-10.4z"/></svg>