<svg xmlns="http://www.w3.org/2000/svg" viewBox="0 0 340 340" fill="#fff"><path d="M232.4 230c-2.4-7.6-5.2-14.4-8.8-20.8-2.8-4.8-5.6-9.2-9.2-13.6-2.4-2.8-5.2-5.6-7.6-8.4V60c0-8-1.6-16-4.4-22.8C192.8 14.4 171.6 0 146.8 0s-46 14.4-55.6 37.2C88.4 44.4 86.8 52 86.8 60v127.6c-2.8 2.4-5.2 5.2-7.6 8.4-3.6 4.4-6.4 8.8-9.2 13.6-3.6 6.4-6.4 13.2-8 20.4-2 7.2-2.8 14.4-2.8 22 0 12 2.4 23.2 6.8 33.6 4.4 10.8 11.2 20.4 19.2 28.4s17.6 14.4 28.4 19.2c10.4 4.4 21.6 6.8 33.6 6.8s23.2-2.4 33.6-6.8c10.8-4.4 20.4-11.2 28.4-19.2s14.4-17.6 19.2-28.4c4.4-10.4 6.8-21.6 6.8-33.6 0-7.6-.8-14.8-2.8-22zm-23.6 47.2c-3.2 8-8.4 15.6-14.8 22s-13.6 11.2-22 14.8c-8 3.2-16.8 5.2-25.6 5.2-9.2 0-18-2-25.6-5.2-8-3.2-15.6-8.4-22-14.8s-11.2-13.6-14.8-22c-3.2-8-5.2-16.8-5.2-25.6 0-6 .8-11.6 2-16.8 1.2-5.6 3.6-10.8 6.4-15.6 2-3.6 4.4-7.2 6.8-10.4 2.8-3.2 5.6-6 8.8-8.8l3.6-3.2V60c0-5.2 1.2-10.4 2.8-15.2 2-4.4 4.4-8.4 7.6-12l.8-.8c3.6-3.6 8-6.8 12.8-8.8s9.6-2.8 15.2-2.8c5.2 0 10.4 1.2 15.2 2.8 4.8 2 9.2 4.8 12.8 8.8l.8.8c3.2 3.6 6 7.6 7.6 12 2 4.8 2.8 9.6 2.8 15.2V197.2l3.6 3.2c3.2 2.8 6 5.6 8.8 8.8 2.4 3.2 4.8 6.8 6.8 10.4 2.8 4.8 4.8 10.4 6.4 15.6 1.2 5.2 2 10.8 2 16.8 1.6 8.8-.4 17.6-3.6 25.2z"/><path d="M254.4 118H224c-5.6 0-10.4 4.4-10.4 10.4 0 5.6 4.8 10.4 10.4 10.4h30.4c5.6 0 10.4-4.4 10.4-10.4 0-5.6-4.4-10.4-10.4-10.4zM197.2 238.4c-1.2-4-2.8-8-4.8-12s-4.8-7.2-7.6-10.4c-3.2-3.2-6.4-6-10-8.4l-3.6-2.4V60c0-13.6-10.4-24.4-24.4-24.4-3.2 0-6.4.8-9.2 2-9.2 4-15.2 12.4-15.2 22.4v145.2l-3.6 2.4c-3.6 2.4-7.2 5.2-10 8.4-3.2 3.2-5.6 6.8-7.6 10.4-2 3.6-3.6 8-4.8 12s-1.6 8.4-1.6 12.8c0 6.8 1.6 13.6 4 20 2.8 6.4 6.4 12 11.2 16.8s10.4 8.8 16.8 11.2c6 2.4 12.8 4 20 4 6.8 0 13.6-1.6 20-4 6.4-2.8 12-6.4 16.8-11.2 4.8-4.8 8.8-10.4 11.2-16.8 2.4-6 4-12.8 4-20 0-4.4-.4-8.8-1.6-12.8zm-21.6 25.2c-1.6 3.6-4 7.2-6.8 10s-6.4 5.2-10 6.8c-3.6 1.6-7.6 2.4-12 2.4s-8.4-.8-12-2.4c-3.6-1.6-7.2-4-10-6.8s-5.2-6.4-6.8-10c-1.6-3.6-2.4-7.6-2.4-12 0-2.8.4-5.6.8-8 .8-2.8 1.6-5.2 2.8-7.2 1.2-2.4 2.8-4.4 4.8-6.4 1.6-2 4-3.6 6-5.2l8.4-5.2 4.8-3.2V60c0-.4 0-.8.4-1.2 0-.4.4-.8.8-1.2l.4-.4c.4 0 .4-.4.8-.4s.8-.4 1.6-.4 1.6.4 2 .8l.4.4c.4.4.8.8.8 1.2 0 .4.4.8.4 1.2V216.8l4.8 3.2 8.4 5.2c2.4 1.6 4.4 3.2 6 5.2 2 2 3.2 4 4.8 6.4 1.2 2.4 2 4.8 2.8 7.2s.8 5.2.8 8c-.4 4-1.2 8-2.8 11.6zM270.4 153.6H224c-5.6 0-10.4 4.4-10.4 10.4 0 5.6 4.4 10.4 10.4 10.4h46.4c5.6 0 10.4-4.4 10.4-10.4-.4-6-4.8-10.4-10.4-10.4zM254.4 47.2H224c-5.6 0-10.4 4.4-10.4 10.4S218.4 68 224 68h30.4c5.6 0 10.4-4.4 10.4-10.4 0-5.6-4.4-10.4-10.4-10.4zM270.4 82.8H224c-5.6 0-10.4 4.4-10.4 10.4 0 5.6 4.4 10.4 10.4 10.4h46.4c5.6 0 10.4-4.4 10.4-10.4-.4-6-4.8-10.4-10.4-10.4z"/></svg>