<svg xmlns="http://www.w3.org/2000/svg" viewBox="0 0 315.2 315.2" fill="#fff"><path d="M267.6 55c-28.8-27.6-67.2-44.8-110-44.8-43.6 0-82.8 17.6-111.6 46C17.6 84.6 0 123.8 0 167v.8c0 5.6 4.8 10.4 10.4 10.4 5.6 0 10.4-4.8 10.4-10.4 0-7.2 2.8-14 8-18.8 4.8-4.8 11.6-8 18.8-8s14 2.8 18.8 8c4.8 4.8 8 11.6 8 18.8 0 5.6 4.8 10.4 10.4 10.4s10.4-4.8 10.4-10.4c0-7.2 2.8-14 8-18.8 4.8-4.8 11.6-8 18.8-8 7.2 0 14 2.8 18.8 8 4.8 4.8 8 11.6 8 18.8v106c0 8.4 3.6 16.4 9.2 22 5.6 5.6 13.2 9.2 22 9.2 8.4 0 16.4-3.6 22-9.2 5.6-5.6 9.2-13.2 9.2-22 0-5.6-4.8-10.4-10.4-10.4-5.6 0-10.4 4.8-10.4 10.4 0 2.8-1.2 5.6-3.2 7.2-2 2-4.4 3.2-7.2 3.2s-5.6-1.2-7.2-3.2c-2-2-3.2-4.4-3.2-7.2v-106c0-7.2 2.8-14 8-18.8 4.8-4.8 11.6-8 18.8-8s14 2.8 18.8 8c4.8 4.8 8 11.6 8 18.8 0 5.6 4.8 10.4 10.4 10.4 5.6 0 8-4.4 8-10.4 0-7.2 2.8-14 8-18.8 4.8-4.8 11.6-8 18.8-8 6.8 0 12.8 2.4 17.6 6.8 4.8 4.4 8 10 8.8 16.8.8 5.2 5.2 9.2 10.4 9.2 5.6 0 10-4.8 10-10.4C314 121 296 82.6 267.6 55zm.8 65.6c-12.8 0-24.8 5.2-33.2 14-1.2 1.2-2.4 2.4-3.6 4-1.2-1.2-2.4-2.8-3.6-4-8.4-8.4-20.4-14-33.2-14-12.8 0-24.8 5.2-33.2 14-1.2 1.2-2.4 2.4-3.6 4-1.2-1.2-2.4-2.8-3.6-4-8.4-8.4-20.4-14-33.2-14-12.8 0-24.8 5.2-33.2 14-1.2 1.2-2.4 2.4-3.6 4-1.2-1.2-2.4-2.8-3.6-4-8.4-8.4-20.4-14-33.2-14-7.2 0-13.6 1.6-19.6 4.4 6.8-20.8 18.4-39.2 33.2-54C86 46.2 120.4 31 158 31c37.2 0 70.8 14.8 95.2 38.8 15.6 15.2 27.6 34 34.8 55.6-6-3.2-12.8-4.8-19.6-4.8z"/></svg>