<svg xmlns="http://www.w3.org/2000/svg" viewBox="0 0 296 296" fill="#fff"><path d="M208.4 187.2c-10.4-10.4-24.4-16.4-40-16.4h-158c-5.6 0-10.4 4.4-10.4 10.4 0 5.2 4.8 10 10.4 10h158c10 0 18.8 4 25.6 10.4 6.4 6.4 10.4 15.6 10.4 25.6s-4 18.8-10.4 25.6c-6.4 6.4-15.6 10.4-25.6 10.4s-18.8-4-25.6-10.4c-6.4-6.4-10.4-15.6-10.4-25.6 0-5.6-4.8-10.4-10.4-10.4s-10 4.8-10 10.4c0 15.6 6.4 29.6 16.4 40 10.4 10.4 24.4 16.4 40 16.4 15.6 0 29.6-6.4 40-16.4 10.4-10.4 16.4-24.4 16.4-40 0-15.6-6.4-29.6-16.4-40zM275.6 32.8c-12.8-12.8-30-20.4-49.2-20.4s-36.8 8-49.2 20.4c-12.8 12.8-20.4 30-20.4 49.2 0 5.6 4.8 10.4 10.4 10.4 5.6 0 10.4-4.8 10.4-10.4 0-13.6 5.6-26 14.4-34.8s21.2-14.4 34.8-14.4c13.6 0 26 5.6 34.8 14.4S276 68.4 276 82c0 13.6-5.6 26-14.4 34.8-8.8 8.8-21.2 14.4-34.8 14.4H23.6c-5.6 0-10.4 4.4-10.4 10.4s4 10 10 10H226.4c19.2 0 36.8-8 49.2-20.4 12.8-12.8 20.4-30 20.4-49.2s-8-36.8-20.4-49.2z"/></svg>